<svg width="16" height="20" viewBox="0 0 16 20" fill="none" xmlns="http://www.w3.org/2000/svg">
<path fill-rule="evenodd" clip-rule="evenodd" d="M11.5571 10.8324C13.0388 9.73984 14 7.98217 14 6C14 2.68629 11.3137 0 8 0C4.68629 0 2 2.68629 2 6C2 7.98217 2.96118 9.73984 4.44288 10.8324C1.80956 12.1417 0 14.8595 0 18V20H16V18C16 14.8595 14.1904 12.1417 11.5571 10.8324ZM12 6C12 8.20914 10.2091 10 8 10C5.79086 10 4 8.20914 4 6C4 3.79086 5.79086 2 8 2C10.2091 2 12 3.79086 12 6ZM8 12C4.68629 12 2 14.6863 2 18H14C14 14.6863 11.3137 12 8 12Z" fill="#6E7178"/>
</svg>
