<svg width="20" height="20" viewBox="0 0 20 20" fill="none" xmlns="http://www.w3.org/2000/svg">
<path fill-rule="evenodd" clip-rule="evenodd" d="M10 4C13.8466 4 17.0414 6.57291 17.9461 10C17.0414 13.4271 13.8466 16 10 16C6.1534 16 2.95858 13.4271 2.05391 10C2.95858 6.57292 6.1534 4 10 4ZM10 2C14.9367 2 19.0546 5.43552 20 10C19.0546 14.5645 14.9367 18 10 18C5.06334 18 0.945454 14.5645 0 10C0.945454 5.43552 5.06334 2 10 2ZM9.99982 12C11.1044 12 11.9998 11.1046 11.9998 10C11.9998 8.89543 11.1044 8 9.99982 8V6C12.209 6 13.9998 7.79086 13.9998 10C13.9998 12.2091 12.209 14 9.99982 14C7.79068 14 5.99982 12.2091 5.99982 10H7.99982C7.99982 11.1046 8.89525 12 9.99982 12Z" fill="#2D2F33"/>
</svg>
